<svg width="24" height="24" viewBox="0 0 24 24" fill="none" xmlns="http://www.w3.org/2000/svg">
<path d="M12 20H21" stroke="#798CA5" stroke-width="2" stroke-linecap="round" stroke-linejoin="round"/>
<path d="M6.62134 19.3787C6.22351 19.7765 5.68395 20 5.12134 20C4.84276 20 4.56691 19.9451 4.30954 19.8385C4.05217 19.7319 3.81832 19.5757 3.62134 19.3787C3.42436 19.1817 3.2681 18.9478 3.16149 18.6905C3.05489 18.4331 3.00002 18.1573 3.00002 17.8787C3.00002 17.6001 3.05489 17.3243 3.16149 17.0669C3.2681 16.8095 3.42436 16.5757 3.62134 16.3787L16.1213 3.87868L20.1213 2.87868L19.1213 6.87868L6.62134 19.3787Z" stroke="#798CA5" stroke-width="2" stroke-linecap="round" stroke-linejoin="round"/>
<path d="M9.12134 16.8787L6.12134 13.8787" stroke="#798CA5" stroke-width="2"/>
</svg>
